<?xml version="1.0" standalone="no"?>
<!DOCTYPE svg PUBLIC "-//W3C//DTD SVG 20010904//EN"
 "http://www.w3.org/TR/2001/REC-SVG-20010904/DTD/svg10.dtd">
<svg version="1.0" xmlns="http://www.w3.org/2000/svg"
 width="2000.000000pt" height="1559.000000pt" viewBox="0 0 2000.000000 1559.000000"
 preserveAspectRatio="xMidYMid meet">

<g transform="translate(0.000000,1559.000000) scale(0.100000,-0.100000)"
fill="#000000" stroke="none">
<path d="M9695 13540 c-790 -79 -1517 -436 -2065 -1015 -300 -318 -558 -748
-707 -1180 -65 -189 -131 -496 -152 -710 -53 -542 30 -1101 235 -1582 287
-672 758 -1204 1385 -1565 271 -157 631 -294 939 -357 249 -52 382 -65 670
-65 289 0 419 13 674 65 793 164 1523 649 1991 1324 626 902 756 2067 342
3070 -156 379 -378 727 -641 1004 -519 546 -1190 890 -1946 998 -125 17 -593
26 -725 13z m1195 -2020 c127 -24 237 -110 294 -229 l31 -66 3 -1099 c3 -1219
6 -1154 -63 -1261 -74 -116 -203 -185 -344 -185 -117 0 -207 39 -288 122 -64
66 -99 134 -112 218 -7 41 -11 364 -11 877 l0 812 -857 3 -858 3 -58 23 c-170
69 -281 270 -248 448 31 167 158 303 314 333 62 13 2132 13 2197 1z"/>
<path d="M5056 6225 c-338 -70 -581 -291 -683 -622 -25 -82 -27 -101 -27 -273
-1 -163 2 -194 22 -263 98 -339 343 -568 687 -643 84 -19 284 -21 375 -5 345
62 604 292 707 628 25 82 27 100 27 278 0 179 -2 195 -28 280 -43 140 -108
255 -201 353 -122 129 -253 209 -420 253 -104 28 -355 36 -459 14z m358 -305
c107 -27 169 -63 253 -146 118 -116 173 -258 173 -449 0 -189 -55 -332 -174
-451 -114 -114 -239 -164 -411 -164 -171 0 -296 50 -410 164 -119 120 -175
263 -175 451 0 189 54 329 174 450 144 146 357 200 570 145z"/>
<path d="M8630 6233 c-314 -61 -532 -219 -660 -478 -72 -145 -94 -244 -94
-430 0 -120 5 -167 22 -238 84 -338 346 -590 688 -662 105 -22 303 -22 408 0
146 31 296 103 409 198 123 103 236 291 279 462 31 128 31 352 0 479 -54 215
-176 397 -347 515 -164 114 -291 152 -520 156 -88 2 -171 1 -185 -2z m355
-322 c93 -31 154 -69 220 -135 115 -117 168 -259 168 -451 0 -128 -17 -208
-68 -310 -45 -91 -99 -153 -183 -208 -96 -64 -175 -89 -302 -94 -227 -10 -403
77 -519 257 -113 174 -130 440 -41 636 73 161 199 267 373 315 94 25 262 21
352 -10z"/>
<path d="M10650 6221 c-108 -24 -157 -42 -248 -91 -222 -120 -366 -304 -434
-555 -25 -94 -34 -288 -19 -394 50 -343 270 -612 591 -723 183 -63 414 -68
605 -13 188 55 322 150 421 300 32 48 35 58 23 69 -26 26 -222 156 -233 156
-6 -1 -27 -24 -48 -53 -132 -192 -457 -265 -694 -157 -158 71 -267 199 -320
375 -14 46 -19 92 -18 195 0 125 2 142 30 222 71 199 217 328 422 374 103 23
242 15 341 -20 119 -40 183 -92 273 -218 12 -16 23 -11 123 58 61 41 117 79
125 84 18 10 9 29 -62 124 -88 118 -215 201 -383 252 -123 37 -364 44 -495 15z"/>
<path d="M2317 6223 c-4 -3 -7 -411 -7 -905 l0 -898 165 0 165 0 2 753 3 752
485 0 485 0 3 -752 2 -753 160 0 160 0 0 905 0 905 -808 0 c-445 0 -812 -3
-815 -7z"/>
<path d="M6577 6223 c-4 -3 -7 -411 -7 -905 l0 -898 165 0 165 0 2 753 3 752
488 3 487 2 0 150 0 150 -648 0 c-357 0 -652 -3 -655 -7z"/>
<path d="M11587 6223 c-4 -3 -7 -71 -7 -150 l0 -143 323 -2 322 -3 3 -752 2
-753 165 0 165 0 0 755 0 755 325 0 326 0 -3 148 -3 147 -806 3 c-443 1 -809
-1 -812 -5z"/>
<path d="M13447 6223 c-4 -3 -7 -411 -7 -905 l0 -899 142 3 143 3 523 625
c288 344 527 627 533 628 5 2 9 -237 9 -627 l0 -631 165 0 165 0 -2 903 -3
902 -136 3 -135 3 -530 -630 c-291 -347 -532 -630 -536 -630 -5 -1 -8 283 -8
629 l0 630 -158 0 c-87 0 -162 -3 -165 -7z"/>
<path d="M15680 5325 l0 -905 155 0 155 0 0 606 c0 333 4 603 8 600 4 -3 143
-228 307 -500 l299 -496 80 0 81 0 299 495 c164 273 303 498 307 501 5 3 9
-262 9 -600 l0 -606 155 0 155 0 0 905 0 905 -144 0 -145 0 -351 -585 c-193
-321 -354 -586 -358 -589 -5 -3 -165 260 -356 585 l-348 589 -154 0 -154 0 0
-905z"/>
<path d="M10490 2955 l0 -425 40 0 40 0 0 195 0 195 103 0 102 -1 149 -194
149 -195 50 0 49 0 -34 44 c-18 25 -93 123 -166 220 l-134 175 157 205 156
206 -48 0 -48 -1 -140 -189 -140 -189 -102 -1 -103 0 0 190 0 190 -40 0 -40 0
0 -425z"/>
<path d="M11310 2735 l0 -435 40 0 40 0 0 176 0 177 48 -45 c68 -63 121 -82
224 -76 95 5 142 25 201 85 75 74 107 183 87 295 -29 159 -128 247 -286 256
-106 6 -168 -14 -229 -73 l-45 -44 0 59 0 60 -40 0 -40 0 0 -435z m404 354
c51 -14 128 -91 144 -145 56 -190 -66 -358 -249 -341 -151 13 -247 158 -209
316 33 137 168 211 314 170z"/>
<path d="M12229 3155 c-63 -23 -119 -55 -119 -68 0 -7 7 -22 15 -33 l14 -21
63 31 c55 28 72 31 149 31 73 0 92 -3 115 -21 46 -34 65 -67 71 -127 l6 -57
-139 0 c-152 0 -202 -9 -252 -46 -44 -34 -62 -73 -62 -134 0 -115 80 -180 221
-180 91 0 139 15 189 57 l40 35 0 -46 0 -46 40 0 40 0 0 221 c0 127 -5 239
-11 264 -15 61 -68 119 -126 139 -57 19 -203 20 -254 1z m311 -376 c0 -101
-72 -175 -182 -186 -140 -14 -226 74 -173 177 9 17 17 30 18 30 1 0 20 7 42
15 27 9 83 14 168 15 l127 0 0 -51z"/>
<path d="M12990 3151 c-140 -57 -220 -210 -190 -364 6 -34 19 -74 27 -90 27
-53 88 -110 148 -139 51 -24 72 -28 145 -28 99 0 163 24 218 83 l34 35 -32 22
c-29 21 -33 21 -42 7 -5 -9 -30 -29 -56 -44 -40 -24 -58 -28 -122 -28 -112 1
-176 40 -219 135 -24 52 -27 141 -9 204 16 54 90 128 144 144 92 27 217 -1
257 -58 l16 -22 30 21 31 22 -22 30 c-12 16 -49 43 -82 59 -52 27 -69 30 -145
29 -59 0 -100 -6 -131 -18z"/>
<path d="M13540 2850 l0 -320 40 0 40 0 0 140 0 140 205 0 205 0 0 -140 0
-140 40 0 40 0 0 320 0 320 -40 0 -40 0 0 -140 0 -140 -205 0 -205 0 0 140 0
140 -40 0 -40 0 0 -320z"/>
<path d="M14495 3150 c-66 -26 -131 -89 -164 -159 -22 -47 -26 -69 -25 -141 0
-110 26 -171 100 -239 65 -60 123 -81 220 -81 137 0 238 61 292 178 23 49 27
70 27 147 0 72 -5 99 -22 135 -34 68 -75 112 -134 145 -47 26 -66 30 -149 32
-76 3 -105 -1 -145 -17z m261 -85 c132 -82 147 -295 30 -403 -118 -108 -308
-70 -376 74 -27 59 -30 161 -5 220 21 51 70 101 120 126 63 29 167 22 231 -17z"/>
<path d="M15243 3160 c-53 -11 -91 -31 -125 -67 -36 -38 -48 -73 -48 -145 0
-83 31 -137 100 -171 l49 -25 -79 -111 -80 -111 45 0 45 0 72 105 73 104 118
1 117 0 0 -105 0 -105 35 0 35 0 0 320 0 320 -157 -1 c-87 -1 -177 -5 -200 -9z
m282 -210 l0 -145 -130 1 c-150 1 -193 14 -225 66 -38 63 -17 167 40 198 37
20 103 28 210 27 l105 -2 0 -145z"/>
<path d="M15860 2735 l0 -435 40 0 40 0 0 175 0 176 30 -35 c52 -58 120 -86
214 -86 68 0 91 5 141 28 67 32 117 83 149 151 17 37 21 66 21 141 0 84 -3
102 -28 152 -34 69 -101 131 -164 152 -27 9 -79 16 -122 16 -88 0 -156 -27
-205 -79 -17 -17 -33 -31 -38 -31 -4 0 -8 25 -8 55 l0 55 -35 0 -35 0 0 -435z
m445 330 c33 -21 57 -47 79 -85 27 -48 31 -65 31 -130 0 -64 -4 -83 -29 -127
-78 -140 -263 -167 -376 -53 -51 50 -70 100 -70 180 0 81 19 129 71 182 55 55
91 68 180 65 54 -2 76 -8 114 -32z"/>
<path d="M16837 3156 c-94 -35 -161 -104 -193 -198 -22 -67 -16 -185 14 -250
28 -65 100 -132 168 -157 68 -26 180 -28 248 -5 45 16 126 80 126 100 0 5 -12
17 -27 26 -27 16 -29 15 -66 -17 -47 -41 -111 -59 -181 -52 -130 13 -209 106
-210 247 -1 66 3 82 30 130 43 75 103 113 190 118 77 5 137 -14 179 -58 28
-29 29 -29 57 -12 15 9 28 21 28 27 0 16 -59 70 -100 91 -47 24 -209 30 -263
10z"/>
<path d="M17380 2850 l0 -320 40 0 40 0 0 145 0 145 74 0 73 0 119 -144 119
-145 48 0 c26 -1 47 1 47 3 0 2 -58 75 -130 162 -71 87 -130 161 -130 165 0 3
54 71 120 152 66 81 120 150 120 152 0 3 -19 5 -42 5 l-43 -1 -110 -139 -110
-140 -77 0 -78 0 0 140 0 140 -40 0 -40 0 0 -320z"/>
</g>
</svg>
